<?xml version="1.0" standalone="no"?>
<!DOCTYPE svg PUBLIC "-//W3C//DTD SVG 20010904//EN"
 "http://www.w3.org/TR/2001/REC-SVG-20010904/DTD/svg10.dtd">
<svg version="1.0" xmlns="http://www.w3.org/2000/svg"
 width="1920.000000pt" height="1080.000000pt" viewBox="0 0 1920.000000 1080.000000"
 preserveAspectRatio="xMidYMid meet">

<g transform="translate(0.000000,1080.000000) scale(0.100000,-0.100000)"
fill="#000000" stroke="none">
<path d="M537 7194 c-185 -44 -329 -180 -399 -374 l-23 -65 0 -1895 0 -1895
22 -70 c61 -192 213 -337 397 -380 61 -14 695 -15 6709 -13 l6642 3 69 27
c176 68 295 203 332 377 21 100 21 3804 -1 3904 -36 173 -159 308 -342 374
l-64 23 -6642 -1 c-5657 -1 -6651 -3 -6700 -15z m3841 -189 c34 -114 117 -222
209 -274 14 -7 6 -19 -48 -72 -69 -69 -108 -137 -135 -240 -25 -92 -47 -115
-60 -61 -11 46 -74 160 -115 205 -21 24 -63 61 -93 82 -31 21 -56 42 -56 46 0
4 13 17 29 28 61 44 128 149 199 314 12 26 27 47 34 47 7 0 23 -32 36 -75z
m-1831 -471 c25 -5 32 -14 52 -72 92 -263 230 -548 339 -702 36 -52 121 -149
187 -216 142 -143 270 -232 480 -334 134 -65 425 -180 492 -195 50 -10 54 -22
51 -150 l-3 -116 -155 -59 c-275 -103 -458 -195 -639 -323 -112 -79 -279 -248
-363 -367 -119 -168 -252 -449 -339 -717 -39 -120 -32 -116 -189 -111 l-95 3
-60 160 c-78 206 -114 285 -188 420 -245 449 -566 696 -1182 906 l-140 48 -7
68 c-3 37 -4 94 -1 125 l6 56 126 48 c572 214 863 427 1093 796 95 153 224
447 294 670 17 56 18 57 58 61 74 6 153 7 183 1z m1142 -186 c35 -92 53 -120
112 -180 36 -37 77 -70 92 -73 15 -4 27 -11 27 -16 0 -5 -22 -39 -50 -77 -54
-74 -95 -172 -106 -251 -6 -43 -27 -83 -38 -70 -2 2 -23 42 -47 89 -42 83
-129 184 -189 222 l-25 15 41 54 c67 89 100 154 149 297 7 19 25 14 34 -10z
m812 -547 c30 -60 64 -107 117 -163 l75 -78 -21 -23 c-38 -41 -127 -192 -147
-249 -18 -53 -45 -83 -53 -59 -17 50 -191 231 -221 231 -5 0 13 44 39 98 26
53 69 146 95 207 40 94 62 131 72 122 1 -2 21 -40 44 -86z m2714 -325 c67 -19
195 -66 195 -72 0 -2 -21 -56 -46 -120 -37 -91 -50 -115 -63 -110 -9 2 -59 22
-111 42 -83 33 -106 37 -180 38 -100 0 -162 -23 -223 -82 -127 -122 -167 -431
-85 -650 28 -74 104 -152 172 -175 94 -32 260 -20 424 31 l62 20 0 -122 c0
-143 11 -129 -135 -167 -108 -28 -333 -33 -425 -10 -285 70 -439 308 -440 678
0 254 64 430 206 563 76 70 174 122 275 145 83 19 291 14 374 -9z m1101 -309
c2 -1 -2 -61 -8 -133 l-11 -130 -86 0 c-131 -1 -213 -45 -264 -139 -21 -38
-22 -54 -25 -352 l-3 -313 -145 0 -144 0 0 530 0 530 109 0 c96 0 110 -2 114
-17 3 -10 13 -51 22 -90 10 -40 21 -73 25 -73 4 0 19 17 33 39 45 67 135 131
214 151 33 8 160 6 169 -3z m807 -17 c86 -27 152 -73 203 -143 62 -84 85 -164
91 -319 l6 -128 -342 0 -341 0 0 -28 c0 -92 77 -197 163 -221 100 -28 333 4
438 60 18 9 19 4 19 -104 l0 -114 -56 -22 c-129 -49 -322 -64 -462 -35 -259
53 -395 235 -395 529 1 265 103 444 296 517 109 41 261 45 380 8z m1078 16
c89 -16 164 -52 226 -109 95 -87 133 -196 133 -379 l0 -118 -337 -2 -338 -3 3
-40 c7 -85 60 -161 137 -196 83 -38 298 -18 430 40 l45 20 0 -114 0 -114 -57
-21 c-97 -37 -215 -53 -338 -47 -175 9 -280 50 -375 146 -104 106 -146 236
-137 431 8 174 47 279 141 378 109 116 277 162 467 128z m1255 3 c221 -40 333
-243 322 -579 -6 -155 -32 -253 -94 -346 -85 -128 -228 -185 -386 -154 -78 15
-127 40 -184 92 l-44 40 8 -83 c4 -46 7 -178 7 -294 l0 -210 -142 -3 -143 -3
0 766 0 765 115 0 114 0 22 -70 c11 -38 23 -70 26 -70 3 0 23 20 46 45 58 66
153 110 248 114 14 1 52 -4 85 -10z m1118 -4 c182 -34 307 -155 345 -333 6
-29 11 -102 11 -162 l0 -110 -337 -2 -338 -3 3 -40 c7 -79 57 -156 127 -193
19 -10 65 -17 127 -20 107 -5 202 12 301 52 l57 24 0 -113 0 -114 -57 -21
c-96 -36 -153 -45 -298 -45 -203 0 -309 37 -415 144 -104 106 -146 236 -137
431 8 174 47 279 141 378 62 66 146 110 241 127 94 18 139 18 229 0z m1246 9
l32 -7 -6 -106 c-11 -170 -4 -157 -94 -157 -140 0 -225 -44 -268 -138 -23 -51
-23 -57 -24 -359 l-1 -307 -145 0 -144 0 0 530 0 531 108 -3 107 -3 20 -82
c11 -45 23 -84 26 -88 3 -3 18 10 33 30 95 124 229 184 356 159z"/>
<path d="M1907 5413 c-4 -3 -7 -91 -7 -195 l0 -188 190 0 190 0 0 -95 0 -95
-95 0 -95 0 0 -285 0 -285 95 0 95 0 0 95 0 95 190 0 190 0 0 -95 0 -95 95 0
95 0 0 285 0 285 -95 0 -95 0 0 95 0 95 193 2 192 3 3 187 2 187 -52 6 c-29 3
-116 5 -193 3 l-140 -3 -3 -192 -2 -193 -190 0 -190 0 0 195 0 195 -183 0
c-101 0 -187 -3 -190 -7z"/>
<path d="M8870 4959 c-58 -23 -105 -87 -119 -164 l-8 -45 204 0 204 0 -7 38
c-9 48 -30 101 -52 126 -42 47 -157 71 -222 45z"/>
<path d="M10010 4954 c-64 -28 -103 -83 -116 -163 l-7 -41 202 0 201 0 0 23
c0 77 -63 169 -128 187 -52 14 -111 12 -152 -6z"/>
<path d="M11240 4938 c-57 -10 -88 -33 -120 -89 -23 -40 -25 -56 -28 -186 -4
-159 9 -229 54 -283 39 -45 75 -60 147 -60 116 0 169 63 189 227 21 161 -15
317 -84 366 -34 25 -99 35 -158 25z"/>
<path d="M12380 4954 c-64 -28 -103 -83 -116 -163 l-7 -41 202 0 201 0 0 23
c0 77 -63 169 -128 187 -52 14 -111 12 -152 -6z"/>
<path d="M14470 4790 l0 -690 150 0 150 0 0 300 0 300 270 0 270 0 0 -300 0
-300 150 0 150 0 0 690 0 690 -150 0 -150 0 0 -270 0 -270 -270 0 -270 0 0
270 0 270 -150 0 -150 0 0 -690z"/>
<path d="M15942 4983 c4 -478 5 -501 26 -563 54 -163 168 -268 342 -316 89
-25 299 -25 390 -1 196 52 327 183 366 366 11 51 14 171 14 539 l0 472 -145 0
-145 0 0 -427 c0 -236 -5 -459 -10 -496 -23 -158 -104 -227 -264 -227 -102 0
-166 21 -209 69 -65 72 -67 89 -67 613 l0 468 -151 0 -151 0 4 -497z"/>
<path d="M17420 4789 l0 -691 333 4 c283 4 340 7 387 22 133 43 221 112 272
214 20 41 23 61 23 162 0 106 -2 119 -29 173 -32 65 -81 107 -158 135 -47 16
-63 32 -33 32 28 0 92 38 120 72 52 62 69 114 69 219 1 87 -2 101 -29 154 -52
102 -157 161 -330 185 -38 5 -195 10 -347 10 l-278 0 0 -691z m615 424 c51
-27 70 -62 69 -128 -1 -112 -59 -146 -257 -148 l-132 -2 -3 154 -3 153 143 -4
c121 -3 149 -7 183 -25z m-19 -528 c151 -45 169 -245 29 -315 -45 -22 -65 -25
-192 -28 l-143 -4 0 181 0 181 128 0 c84 0 146 -5 178 -15z"/>
</g>
</svg>
