<?xml version="1.0" standalone="no"?>
<!DOCTYPE svg PUBLIC "-//W3C//DTD SVG 20010904//EN"
 "http://www.w3.org/TR/2001/REC-SVG-20010904/DTD/svg10.dtd">
<svg version="1.0" xmlns="http://www.w3.org/2000/svg"
 width="1920.000000pt" height="1080.000000pt" viewBox="0 0 1920.000000 1080.000000"
 preserveAspectRatio="xMidYMid meet">

<g transform="translate(0.000000,1080.000000) scale(0.100000,-0.100000)"
fill="#000000" stroke="none">
<path d="M13960 7198 c198 -84 294 -176 352 -338 l23 -65 3 -1875 c2 -1219 -1
-1904 -7 -1958 -21 -171 -128 -322 -278 -393 -40 -19 -73 -37 -73 -41 0 -5
1050 -7 2333 -5 l2332 2 63 23 c158 57 275 176 322 330 20 63 20 97 20 1993 0
1927 0 1930 -21 1992 -45 134 -153 251 -285 308 l-79 34 -2365 2 c-1671 1
-2358 -1 -2340 -9z m840 -1968 l0 -270 275 0 275 0 0 270 0 270 145 0 145 0 0
-690 0 -690 -145 0 -145 0 0 295 0 295 -275 0 -275 0 0 -295 0 -295 -145 0
-145 0 0 690 0 690 145 0 145 0 0 -270z m1472 -217 c3 -451 4 -491 22 -531 23
-54 85 -107 141 -121 55 -14 168 -14 218 0 47 13 102 61 128 111 32 63 39 177
39 613 l-1 410 146 3 146 3 -4 -503 c-4 -539 -3 -532 -57 -638 -30 -60 -113
-145 -174 -179 -169 -96 -452 -106 -632 -22 -77 36 -170 121 -207 189 -55 101
-57 124 -57 659 l0 493 145 0 144 0 3 -487z m1861 463 c138 -31 214 -80 262
-168 24 -44 30 -68 33 -139 7 -151 -42 -249 -151 -300 -34 -15 -55 -28 -47
-29 35 -1 138 -60 168 -96 80 -97 92 -275 27 -404 -27 -53 -105 -129 -161
-158 -102 -52 -128 -55 -481 -60 l-333 -4 0 692 0 692 308 -5 c226 -4 325 -9
375 -21z"/>
<path d="M17740 5105 l0 -157 133 4 c201 6 257 40 257 158 0 106 -59 140 -257
148 l-133 5 0 -158z"/>
<path d="M17740 4541 l0 -181 115 0 c137 0 205 13 246 47 42 36 59 74 59 135
0 73 -25 117 -86 148 -43 22 -62 25 -191 29 l-143 3 0 -181z"/>
<path d="M4709 7063 c-65 -152 -106 -220 -166 -281 -35 -34 -63 -66 -63 -70 0
-4 15 -16 33 -27 86 -51 176 -160 212 -260 10 -27 22 -54 27 -60 14 -16 34 17
47 77 18 86 67 174 133 240 32 32 58 62 58 68 0 5 -12 16 -27 24 -36 19 -104
90 -137 143 -14 23 -37 75 -50 115 -14 40 -30 74 -36 76 -5 2 -20 -18 -31 -45z"/>
<path d="M2437 6531 c-27 -6 -33 -17 -86 -166 -148 -410 -276 -637 -476 -840
-209 -213 -472 -368 -876 -515 l-117 -43 -6 -61 c-3 -33 -2 -90 2 -125 l7 -64
110 -37 c444 -150 716 -306 938 -539 190 -201 325 -444 489 -881 l24 -65 74
-5 c41 -3 97 -3 124 0 l50 5 38 110 c182 527 375 830 673 1056 170 129 448
266 747 370 47 17 68 30 72 44 8 27 7 132 0 188 l-7 46 -111 37 c-446 147
-756 329 -967 569 -159 180 -297 427 -422 755 l-64 165 -94 1 c-52 1 -107 -1
-122 -5z m-97 -1266 l0 -205 -200 0 -200 0 0 205 0 205 200 0 200 0 0 -205z
m830 0 l0 -205 -205 0 -205 0 0 198 c0 109 3 202 7 205 3 4 96 7 205 7 l198 0
0 -205z m-410 -325 l0 -110 125 0 125 0 0 -280 0 -280 -125 0 -125 0 0 115 0
115 -210 0 -210 0 0 -115 0 -115 -130 0 -130 0 0 280 0 280 129 0 c108 0 130
3 135 16 3 9 6 58 6 110 l0 94 205 0 205 0 0 -110z"/>
<path d="M4046 6358 c-7 -18 -20 -54 -30 -79 -19 -53 -74 -148 -117 -201 -16
-20 -29 -39 -29 -41 0 -2 27 -25 59 -51 62 -48 135 -146 171 -230 30 -70 50
-60 66 30 15 89 55 180 111 252 24 31 43 59 43 63 0 4 -20 17 -45 29 -25 12
-63 43 -86 68 -39 45 -99 152 -99 180 0 25 -31 11 -44 -20z"/>
<path d="M4832 5898 c-5 -7 -26 -52 -46 -100 -19 -47 -60 -136 -89 -197 l-54
-111 21 -14 c50 -32 140 -123 178 -178 32 -48 42 -57 54 -47 8 6 14 17 14 23
0 24 73 163 125 237 l53 76 -72 74 c-54 55 -84 96 -116 162 -24 48 -46 87 -50
87 -4 0 -12 -6 -18 -12z"/>
<path d="M6961 5508 c-137 -19 -246 -71 -339 -161 -133 -130 -194 -303 -193
-552 0 -368 142 -595 421 -671 133 -37 398 -20 533 33 l37 15 0 120 c0 110 -2
120 -17 115 -265 -75 -395 -80 -506 -19 -116 63 -168 190 -168 413 0 185 31
286 114 376 62 67 106 86 212 91 79 4 100 1 170 -23 44 -15 96 -36 117 -46
l36 -18 47 116 c44 111 46 118 29 130 -32 24 -199 72 -285 83 -94 11 -118 11
-208 -2z"/>
<path d="M8190 5181 c-71 -22 -144 -76 -193 -143 -16 -21 -32 -38 -37 -38 -5
0 -17 37 -28 83 l-19 82 -111 3 -112 3 0 -526 0 -525 144 0 145 0 3 313 c3
297 4 314 25 352 50 94 113 128 250 133 l101 4 7 107 c4 58 8 117 9 131 1 25
0 25 -79 27 -44 1 -91 -2 -105 -6z"/>
<path d="M8851 5175 c-170 -48 -294 -186 -331 -369 -17 -83 -14 -268 5 -339
67 -254 268 -379 580 -363 119 6 164 15 249 46 l55 21 3 105 c2 58 0 108 -3
109 -3 2 -46 -10 -95 -27 -114 -40 -295 -52 -369 -23 -80 30 -145 126 -145
214 l0 31 336 0 336 0 -4 138 c-3 108 -9 149 -25 195 -43 114 -129 203 -242
247 -74 30 -269 38 -350 15z m220 -196 c68 -23 128 -105 129 -176 l0 -33 -201
0 -201 0 7 33 c30 144 141 217 266 176z"/>
<path d="M9993 5175 c-172 -47 -296 -184 -333 -369 -17 -83 -14 -268 5 -339
48 -181 172 -303 355 -348 68 -17 295 -18 366 -2 28 7 76 22 107 33 l56 21 3
101 c2 55 0 104 -3 110 -3 5 -28 0 -59 -12 -132 -52 -324 -68 -409 -34 -51 20
-113 89 -129 142 -13 44 -16 103 -4 101 4 -1 154 -1 335 0 l327 1 0 118 c0
178 -34 277 -125 367 -86 87 -192 125 -345 124 -52 0 -119 -7 -147 -14z m225
-200 c70 -30 121 -102 122 -172 l0 -33 -201 0 -201 0 7 33 c31 147 151 223
273 172z"/>
<path d="M11310 5174 c-58 -21 -123 -66 -150 -104 -12 -17 -25 -30 -30 -30 -5
0 -18 28 -28 63 l-18 62 -117 3 -117 3 0 -756 0 -755 146 0 147 0 -6 258 c-4
141 -9 273 -13 292 l-7 34 54 -47 c127 -111 320 -126 461 -36 121 78 184 224
195 449 12 274 -73 473 -235 548 -73 33 -212 41 -282 16z m137 -242 c64 -46
101 -178 90 -327 -15 -206 -96 -295 -242 -265 -63 13 -98 42 -128 108 -20 42
-22 63 -22 207 0 151 1 163 25 210 36 72 83 97 175 93 53 -2 78 -8 102 -26z"/>
<path d="M12358 5174 c-82 -19 -134 -48 -199 -111 -102 -97 -149 -229 -149
-423 0 -273 117 -444 355 -516 46 -15 92 -19 200 -18 147 0 240 17 318 55 l37
19 0 105 c0 58 -3 105 -7 105 -5 0 -32 -9 -62 -20 -124 -48 -296 -66 -387 -41
-83 22 -150 106 -161 202 l-6 49 343 0 343 0 -6 123 c-9 181 -38 266 -123 357
-83 89 -196 131 -349 129 -49 0 -116 -7 -147 -15z m261 -217 c41 -27 74 -86
85 -149 l7 -38 -201 0 -200 0 0 30 c0 39 24 98 53 129 60 65 180 78 256 28z"/>
<path d="M13685 5174 c-54 -19 -133 -80 -170 -131 -16 -23 -34 -40 -40 -39 -5
1 -19 39 -29 84 l-20 82 -108 0 -108 0 0 -525 0 -525 145 0 145 0 0 308 0 308
26 52 c45 91 126 132 259 132 l83 0 5 33 c3 17 9 78 13 135 l7 102 -84 -1
c-46 0 -102 -7 -124 -15z"/>
</g>
</svg>
