<?xml version="1.0" standalone="no"?>
<!DOCTYPE svg PUBLIC "-//W3C//DTD SVG 20010904//EN"
 "http://www.w3.org/TR/2001/REC-SVG-20010904/DTD/svg10.dtd">
<svg version="1.0" xmlns="http://www.w3.org/2000/svg"
 width="1920.000000pt" height="1080.000000pt" viewBox="0 0 1920.000000 1080.000000"
 preserveAspectRatio="xMidYMid meet">

<g transform="translate(0.000000,1080.000000) scale(0.100000,-0.100000)"
fill="#000000" stroke="none">
<path d="M0 5400 l0 -5400 9600 0 9600 0 0 5400 0 5400 -9600 0 -9600 0 0
-5400z m16670 1795 c199 -53 351 -221 380 -420 13 -96 13 -2547 0 -2635 -14
-91 -77 -214 -143 -281 -60 -62 -167 -122 -245 -138 -38 -8 -542 -11 -1738
-11 l-1686 0 46 51 c25 28 63 85 83 127 l38 76 3 1415 c2 1272 1 1421 -14
1470 -46 163 -188 300 -355 345 -48 13 157 15 1761 15 1556 1 1823 -1 1870
-14z m-10876 -138 c19 -66 78 -151 133 -193 l43 -33 -29 -24 c-68 -57 -112
-136 -135 -239 -6 -28 -36 -40 -36 -15 0 8 -14 41 -30 74 -28 57 -93 127 -150
164 l-25 17 52 54 c33 36 67 88 97 151 26 54 51 97 56 97 5 0 15 -24 24 -53z
m-1398 -463 l51 -6 43 -107 c132 -329 299 -553 525 -702 91 -60 265 -147 389
-193 l111 -42 7 -40 c9 -52 10 -196 0 -211 -4 -6 -53 -30 -110 -52 -319 -127
-561 -310 -707 -534 -65 -101 -160 -295 -201 -414 l-29 -82 -81 -6 c-45 -4
-104 -4 -132 0 l-49 6 -38 97 c-51 132 -145 311 -213 406 -155 217 -371 371
-697 496 l-120 46 -7 45 c-9 57 -10 148 -2 187 5 26 14 33 68 52 33 12 124 53
201 90 211 102 368 222 480 365 113 144 166 243 256 470 l47 120 48 6 c74 9
104 9 160 3z m879 -63 c12 -54 121 -181 156 -181 17 0 9 -20 -27 -70 -41 -58
-69 -125 -79 -193 -9 -57 -25 -60 -49 -9 -21 43 -104 162 -114 162 -4 1 -20
11 -35 24 l-29 23 35 49 c39 56 79 131 96 187 15 44 37 48 46 8z m610 -392
c29 -62 97 -152 130 -173 l25 -16 -50 -74 c-28 -40 -61 -100 -74 -132 -13 -32
-29 -59 -34 -59 -6 0 -25 23 -44 50 -19 28 -59 70 -90 94 l-55 45 18 30 c17
29 109 230 122 269 11 29 26 19 52 -34z m2019 -249 c62 -9 200 -50 213 -64 3
-3 -10 -46 -28 -96 -26 -71 -37 -89 -49 -83 -63 28 -183 63 -220 63 -182 1
-279 -143 -267 -395 6 -127 24 -186 73 -243 69 -81 205 -99 371 -49 46 13 85
22 88 19 3 -3 5 -45 5 -92 0 -86 0 -88 -27 -98 -79 -30 -108 -35 -229 -39
-105 -4 -142 -2 -190 12 -155 44 -247 137 -301 304 -23 73 -29 300 -9 385 55
232 232 378 466 385 19 0 66 -4 104 -9z m900 -246 c18 -7 20 -42 10 -143 l-7
-61 -56 0 c-77 0 -125 -15 -168 -53 -60 -53 -63 -69 -63 -332 l0 -235 -110 0
-110 0 0 405 0 405 84 0 84 0 12 -65 c7 -36 16 -65 19 -65 4 0 22 18 40 40 62
78 197 130 265 104z m664 -26 c75 -28 142 -96 172 -174 17 -43 24 -88 28 -166
l5 -108 -262 0 -261 0 0 -27 c1 -40 33 -106 65 -131 73 -58 232 -52 388 13 16
7 18 1 15 -81 l-3 -88 -55 -19 c-40 -15 -90 -21 -182 -25 -109 -4 -136 -1
-195 17 -161 50 -245 166 -259 361 -7 85 13 197 47 266 27 56 93 124 144 149
101 48 244 54 353 13z m797 21 c191 -35 285 -168 285 -401 l0 -68 -266 0
c-248 0 -265 -1 -261 -17 3 -10 8 -31 12 -48 10 -47 53 -95 103 -118 39 -16
59 -19 126 -14 70 5 155 25 219 52 15 6 17 -1 17 -78 l0 -86 -57 -22 c-51 -21
-76 -23 -208 -24 -136 0 -156 2 -210 24 -82 33 -163 115 -194 196 -27 73 -38
214 -22 299 43 228 223 348 456 305z m1042 -20 c96 -46 156 -154 175 -311 21
-177 -19 -327 -111 -419 -68 -67 -117 -84 -224 -77 -77 5 -117 21 -169 67
l-33 29 4 -224 3 -224 -111 0 -111 0 0 585 0 585 90 0 89 0 12 -42 c17 -60 25
-66 49 -35 72 91 223 121 337 66z m778 20 c191 -35 285 -168 285 -401 l0 -68
-266 0 c-248 0 -265 -1 -261 -17 3 -10 8 -31 12 -48 10 -47 53 -95 103 -118
39 -16 59 -19 126 -14 70 5 155 25 219 52 15 6 17 -1 17 -78 l0 -86 -57 -22
c-51 -21 -76 -23 -208 -24 -136 0 -156 2 -210 24 -82 33 -163 115 -194 196
-27 73 -38 214 -22 299 43 228 223 348 456 305z m971 5 c18 -5 21 -12 18 -42
-2 -21 -6 -66 -9 -102 l-6 -65 -54 3 c-109 7 -200 -48 -224 -135 -6 -21 -11
-136 -11 -260 l0 -223 -110 0 -110 0 0 405 0 405 84 0 84 0 14 -62 c7 -34 18
-63 23 -64 6 -2 22 14 37 36 53 76 181 126 264 104z"/>
<path d="M13550 5350 l0 -530 115 0 115 0 0 230 0 230 210 0 210 0 0 -230 0
-230 110 0 110 0 0 530 0 530 -110 0 -110 0 0 -205 0 -205 -210 0 -210 0 0
205 0 205 -115 0 -115 0 0 -530z"/>
<path d="M14680 5533 c0 -192 5 -375 10 -408 26 -161 130 -269 291 -305 87
-19 269 -8 344 21 83 32 173 122 205 204 24 59 24 68 28 448 l4 387 -116 0
-116 0 0 -353 c0 -388 -5 -429 -57 -479 -39 -37 -78 -50 -156 -50 -89 0 -144
26 -178 85 l-24 42 -3 378 -3 377 -114 0 -115 0 0 -347z"/>
<path d="M15810 5350 l0 -530 235 0 c301 0 376 15 465 96 68 62 85 103 85 214
0 86 -3 100 -27 142 -28 47 -72 81 -120 93 -34 9 -36 21 -4 29 37 9 87 56 107
101 24 51 25 170 3 223 -53 128 -163 162 -519 162 l-225 0 0 -530z m431 339
c73 -16 99 -44 99 -109 0 -89 -54 -120 -212 -120 l-88 0 0 120 0 120 75 0 c40
0 97 -5 126 -11z m48 -425 c69 -27 95 -98 65 -172 -26 -66 -66 -82 -204 -82
l-110 0 0 135 0 135 105 0 c72 0 117 -5 144 -16z"/>
<path d="M3890 5685 l0 -145 145 0 145 0 0 -75 0 -75 -70 0 -70 0 0 -220 0
-220 70 0 69 0 3 73 3 72 148 3 147 3 0 -76 0 -75 75 0 75 0 0 220 0 220 -75
0 -75 0 0 75 0 75 145 0 145 0 0 145 0 145 -145 0 -145 0 0 -145 0 -145 -150
0 -150 0 0 145 0 145 -145 0 -145 0 0 -145z"/>
<path d="M9250 5479 c-49 -20 -81 -62 -95 -126 l-7 -33 156 0 c156 0 156 0
156 23 0 42 -43 111 -80 129 -38 20 -91 22 -130 7z"/>
<path d="M10110 5472 c-36 -20 -65 -66 -76 -120 l-6 -32 157 0 157 0 -7 38
c-20 110 -129 165 -225 114z"/>
<path d="M11032 5454 c-19 -10 -43 -35 -55 -58 -19 -36 -22 -57 -22 -161 0
-102 3 -127 22 -167 26 -57 63 -78 136 -78 46 0 60 4 85 28 39 37 62 115 62
212 0 154 -46 230 -142 237 -36 3 -64 -2 -86 -13z"/>
<path d="M11930 5472 c-36 -20 -65 -66 -76 -120 l-6 -32 157 0 157 0 -7 38
c-20 110 -129 165 -225 114z"/>
</g>
</svg>
