<?xml version="1.0" standalone="no"?>
<!DOCTYPE svg PUBLIC "-//W3C//DTD SVG 20010904//EN"
 "http://www.w3.org/TR/2001/REC-SVG-20010904/DTD/svg10.dtd">
<svg version="1.0" xmlns="http://www.w3.org/2000/svg"
 width="1920.000000pt" height="1080.000000pt" viewBox="0 0 1920.000000 1080.000000"
 preserveAspectRatio="xMidYMid meet">

<g transform="translate(0.000000,1080.000000) scale(0.100000,-0.100000)"
fill="#000000" stroke="none">
<path d="M2940 7194 c-204 -54 -362 -219 -406 -422 -21 -103 -21 -2658 1
-2751 36 -150 147 -294 281 -364 143 -74 -352 -68 5192 -65 l4987 3 71 26
c142 52 244 145 308 279 l31 65 3 1410 c3 1579 8 1477 -69 1595 -74 115 -179
192 -304 225 -53 13 -599 15 -5050 14 -4341 0 -4997 -2 -5045 -15z m2854 -137
c19 -66 78 -151 133 -193 l43 -33 -29 -24 c-68 -57 -112 -136 -135 -239 -6
-28 -36 -40 -36 -15 0 8 -14 41 -30 74 -28 57 -93 127 -150 164 l-25 17 52 54
c33 36 67 88 97 151 26 54 51 97 56 97 5 0 15 -24 24 -53z m-1377 -463 c28 -5
34 -15 69 -102 51 -129 144 -310 201 -391 26 -36 87 -108 137 -159 142 -146
315 -252 571 -352 110 -42 121 -49 126 -76 9 -42 10 -207 1 -221 -4 -6 -53
-30 -110 -52 -319 -127 -561 -310 -707 -534 -65 -101 -160 -295 -201 -414
l-29 -82 -81 -6 c-45 -4 -104 -4 -132 0 l-49 6 -38 97 c-51 132 -145 311 -213
406 -155 217 -371 371 -697 496 l-120 46 -9 67 c-4 37 -5 95 -2 130 l7 62 87
34 c48 19 137 59 197 90 354 179 541 390 702 791 l62 155 38 6 c53 9 155 10
190 3z m858 -63 c12 -54 121 -181 156 -181 17 0 9 -20 -27 -70 -41 -58 -69
-125 -79 -193 -9 -57 -25 -60 -49 -9 -21 43 -104 162 -114 162 -4 1 -20 11
-36 24 l-29 24 35 49 c40 54 79 129 97 186 15 44 37 48 46 8z m610 -392 c29
-62 97 -152 130 -173 l25 -16 -50 -74 c-28 -40 -61 -99 -74 -132 -27 -66 -39
-75 -57 -42 -21 41 -87 114 -128 142 l-39 28 18 31 c18 30 109 231 123 270 11
29 26 19 52 -34z m2019 -249 c62 -9 200 -50 213 -64 3 -3 -10 -46 -28 -96 -26
-71 -37 -89 -49 -83 -63 28 -183 63 -220 63 -182 1 -279 -143 -267 -395 6
-127 24 -186 73 -243 69 -81 205 -99 371 -49 46 13 85 22 88 19 3 -3 5 -45 5
-92 0 -86 0 -88 -27 -98 -79 -30 -108 -35 -229 -39 -105 -4 -142 -2 -190 12
-155 44 -247 137 -301 304 -23 73 -29 300 -9 385 55 232 232 378 466 385 19 0
66 -4 104 -9z m900 -246 c18 -7 20 -42 10 -143 l-7 -61 -56 0 c-77 0 -125 -15
-168 -53 -60 -53 -63 -69 -63 -332 l0 -235 -110 0 -110 0 0 405 0 405 84 0 84
0 12 -65 c7 -36 16 -65 19 -65 4 0 22 18 40 40 62 78 197 130 265 104z m664
-26 c75 -28 142 -96 172 -174 17 -43 24 -88 28 -166 l5 -108 -262 0 -261 0 0
-27 c1 -40 33 -106 65 -131 73 -58 232 -52 388 13 16 7 18 1 15 -81 l-3 -88
-55 -19 c-40 -15 -90 -21 -182 -25 -109 -4 -136 -1 -195 17 -161 50 -245 166
-259 361 -7 85 13 197 47 266 27 56 93 124 144 149 101 48 244 54 353 13z
m797 21 c191 -35 285 -168 285 -401 l0 -68 -266 0 c-248 0 -265 -1 -261 -17 3
-10 8 -31 12 -48 10 -47 53 -95 103 -118 39 -16 59 -19 126 -14 70 5 155 25
219 52 15 6 17 -1 17 -78 l0 -86 -57 -22 c-51 -21 -76 -23 -208 -24 -136 0
-156 2 -210 24 -82 33 -163 115 -194 196 -27 73 -38 214 -22 299 43 228 223
348 456 305z m1042 -20 c96 -46 156 -154 175 -311 21 -177 -19 -327 -111 -419
-68 -67 -117 -84 -224 -77 -77 5 -117 21 -169 67 l-33 29 4 -224 3 -224 -111
0 -111 0 0 585 0 585 90 0 89 0 12 -42 c17 -60 25 -66 49 -35 72 91 223 121
337 66z m778 20 c191 -35 285 -168 285 -401 l0 -68 -266 0 c-248 0 -265 -1
-261 -17 3 -10 8 -31 12 -48 10 -47 53 -95 103 -118 39 -16 59 -19 126 -14 70
5 155 25 219 52 15 6 17 -1 17 -78 l0 -86 -57 -22 c-51 -21 -76 -23 -208 -24
-136 0 -156 2 -210 24 -82 33 -163 115 -194 196 -27 73 -38 214 -22 299 43
228 223 348 456 305z m971 5 c18 -5 21 -12 18 -42 -2 -21 -6 -66 -9 -102 l-6
-65 -54 3 c-109 7 -200 -48 -224 -135 -6 -21 -11 -136 -11 -260 l0 -223 -110
0 -110 0 0 405 0 405 84 0 84 0 14 -62 c7 -34 18 -63 23 -64 6 -2 22 14 37 36
53 76 181 126 264 104z"/>
<path d="M3890 5685 l0 -145 145 0 145 0 0 -75 0 -75 -70 0 -70 0 0 -220 0
-220 70 0 69 0 3 73 3 72 148 3 147 3 0 -76 0 -75 75 0 75 0 0 220 0 220 -75
0 -75 0 0 75 0 75 145 0 145 0 0 145 0 145 -145 0 -145 0 0 -145 0 -145 -150
0 -150 0 0 145 0 145 -145 0 -145 0 0 -145z"/>
<path d="M9250 5479 c-49 -20 -81 -62 -95 -126 l-7 -33 156 0 c156 0 156 0
156 23 0 42 -43 111 -80 129 -38 20 -91 22 -130 7z"/>
<path d="M10110 5472 c-36 -20 -65 -66 -76 -120 l-6 -32 157 0 157 0 -7 38
c-20 110 -129 165 -225 114z"/>
<path d="M11032 5454 c-19 -10 -43 -35 -55 -58 -19 -36 -22 -57 -22 -161 0
-102 3 -127 22 -167 26 -57 63 -78 136 -78 46 0 60 4 85 28 39 37 62 115 62
212 0 154 -46 230 -142 237 -36 3 -64 -2 -86 -13z"/>
<path d="M11930 5472 c-36 -20 -65 -66 -76 -120 l-6 -32 157 0 157 0 -7 38
c-20 110 -129 165 -225 114z"/>
<path d="M13550 5350 l0 -530 115 0 115 0 0 230 0 230 210 0 210 0 0 -230 0
-230 110 0 110 0 0 530 0 530 -110 0 -110 0 0 -205 0 -205 -210 0 -210 0 0
205 0 205 -115 0 -115 0 0 -530z"/>
<path d="M14680 5538 c0 -189 4 -371 9 -405 23 -159 120 -268 276 -309 59 -16
231 -18 294 -3 111 25 220 110 261 202 33 74 40 163 40 515 l0 342 -115 0
-115 0 0 -353 c0 -388 -5 -429 -57 -479 -39 -38 -78 -50 -154 -51 -89 0 -146
27 -180 86 l-24 42 -3 378 -3 377 -114 0 -115 0 0 -342z"/>
<path d="M15810 5350 l0 -530 235 0 c301 0 376 15 465 96 68 62 85 103 85 214
0 86 -3 100 -27 142 -28 47 -72 81 -120 93 -37 10 -35 16 15 40 25 12 54 38
72 63 25 37 30 55 34 119 4 91 -9 141 -51 189 -73 82 -173 104 -483 104 l-225
0 0 -530z m431 339 c73 -16 99 -44 99 -109 0 -89 -54 -120 -212 -120 l-88 0 0
120 0 120 75 0 c40 0 97 -5 126 -11z m55 -428 c52 -24 79 -75 70 -133 -15 -94
-59 -118 -215 -118 l-111 0 0 135 0 135 108 0 c82 0 116 -5 148 -19z"/>
</g>
</svg>
