<?xml version="1.0" encoding="UTF-8"?>
<svg version="1.1" xmlns="http://www.w3.org/2000/svg" width="500" height="500">
<path d="M0 0 C165 0 330 0 500 0 C500 165 500 330 500 500 C335 500 170 500 0 500 C0 335 0 170 0 0 Z " fill="#000000" transform="translate(0,0)"/>
<path d="M0 0 C1.00023193 0.00523682 2.00046387 0.01047363 3.03100586 0.01586914 C4.1105957 0.0190918 5.19018555 0.02231445 6.30249023 0.02563477 C8.00695312 0.03820312 8.00695312 0.03820312 9.74584961 0.05102539 C11.45611328 0.05779297 11.45611328 0.05779297 13.20092773 0.06469727 C16.02845312 0.07652792 18.85587601 0.09301129 21.68334961 0.11352539 C24.56346647 6.78461302 27.20595105 13.49753346 29.69458008 20.32324219 C39.27072492 46.46347272 50.64314195 72.63053001 68.68334961 94.11352539 C69.65103433 95.29562325 70.61847265 96.47792284 71.58569336 97.66040039 C96.51513352 127.79391169 131.72903313 145.66755807 168.26538086 158.06665039 C168.9992804 158.31598831 169.73317993 158.56532623 170.48931885 158.82221985 C174.13145489 160.05465755 177.77881812 161.26656671 181.43774414 162.44824219 C182.76832021 162.88742189 184.09888707 163.3266295 185.42944336 163.76586914 C186.61207764 164.14735107 187.79471191 164.52883301 189.01318359 164.921875 C189.89433838 165.31511963 190.77549316 165.70836426 191.68334961 166.11352539 C192.68340265 169.11368451 192.79910546 171.08776295 192.78100586 174.21899414 C192.7777832 175.2019043 192.77456055 176.18481445 192.77124023 177.19750977 C192.76286133 178.22166992 192.75448242 179.24583008 192.74584961 180.30102539 C192.74133789 181.33678711 192.73682617 182.37254883 192.73217773 183.43969727 C192.72038971 185.99769805 192.70393476 188.55558272 192.68334961 191.11352539 C191.93577393 191.38914307 191.18819824 191.66476074 190.41796875 191.94873047 C125.21669918 216.0838971 75.41005359 245.1348216 45.34741211 309.99584961 C37.87628128 326.59364595 32.22299002 343.79992258 26.68334961 361.11352539 C23.3324319 361.86715591 20.25225149 362.23332476 16.82006836 362.21118164 C15.93383789 362.20795898 15.04760742 362.20473633 14.13452148 362.20141602 C13.22250977 362.19303711 12.31049805 362.1846582 11.37084961 362.17602539 C10.43950195 362.17151367 9.5081543 362.16700195 8.54858398 362.16235352 C6.26010588 362.15061773 3.97176153 362.13419902 1.68334961 362.11352539 C-0.82757118 356.20851434 -3.28488138 350.29673107 -5.50024414 344.27368164 C-17.21706354 312.44784494 -31.75664572 281.9634498 -55.31665039 257.11352539 C-56.2099707 256.15575195 -57.10329102 255.19797852 -58.02368164 254.21118164 C-68.96521588 242.71326667 -81.73942134 233.96676511 -95.49438477 226.15014648 C-97.21925736 225.16892877 -98.93241627 224.16720242 -100.64477539 223.16430664 C-119.05683384 212.80226918 -139.30837078 205.8878026 -159.2878418 199.19799805 C-161.03846924 198.61091064 -161.03846924 198.61091064 -162.82446289 198.01196289 C-164.38124756 197.49641846 -164.38124756 197.49641846 -165.96948242 196.97045898 C-168.31665039 196.11352539 -168.31665039 196.11352539 -169.31665039 195.11352539 C-169.40391262 193.33281293 -169.4236408 191.54869399 -169.41430664 189.76586914 C-169.41108398 188.6862793 -169.40786133 187.60668945 -169.40454102 186.49438477 C-169.39616211 185.35807617 -169.3877832 184.22176758 -169.37915039 183.05102539 C-169.37463867 181.91084961 -169.37012695 180.77067383 -169.36547852 179.59594727 C-169.35364787 176.76842188 -169.33716449 173.94099899 -169.31665039 171.11352539 C-163.25199662 168.2737272 -157.08209589 165.89426883 -150.78833008 163.61352539 C-127.29190894 155.03921369 -103.59058036 144.95603757 -83.31665039 130.11352539 C-82.72223145 129.6868457 -82.1278125 129.26016602 -81.51538086 128.82055664 C-42.21274415 100.36113175 -23.194711 57.62886663 -7.62835693 13.14666748 C-6.94248286 11.19066066 -6.25289717 9.23599459 -5.56274414 7.28149414 C-5.15596436 6.12286865 -4.74918457 4.96424316 -4.33007812 3.77050781 C-2.94701203 0.1444157 -2.94701203 0.1444157 0 0 Z " fill="#FDFDFD" transform="translate(238.316650390625,68.886474609375)"/>
<path d="M0 0 C13.2 0 26.4 0 40 0 C40 6.6 40 13.2 40 20 C46.93 20 53.86 20 61 20 C61 40.46 61 60.92 61 82 C54.07 82 47.14 82 40 82 C40 75.07 40 68.14 40 61 C26.8 61 13.6 61 0 61 C0 67.93 0 74.86 0 82 C-6.93 82 -13.86 82 -21 82 C-21 61.54 -21 41.08 -21 20 C-14.07 20 -7.14 20 0 20 C0 13.4 0 6.8 0 0 Z " fill="#050505" transform="translate(230,231)"/>
<path d="M0 0 C1.97265625 0.16015625 1.97265625 0.16015625 4 1 C4.87109375 2.93359375 4.87109375 2.93359375 5.4375 5.4375 C8.86669805 18.26051186 15.88313896 29.05016268 27.3125 36.0390625 C27.869375 36.35617188 28.42625 36.67328125 29 37 C27.63760782 39.84223197 26.44766831 41.96027641 24 44 C23.34 44 22.68 44 22 44 C21.72800781 44.5878125 21.45601563 45.175625 21.17578125 45.78125 C20.02494379 47.95292999 18.7540818 49.61514169 17.1875 51.5 C12.33685845 57.86869075 9.39076033 65.2773942 7.9375 73.125 C7.628125 74.40375 7.31875 75.6825 7 77 C4.94140625 78.2421875 4.94140625 78.2421875 3 79 C2.57589844 78.02160156 2.15179688 77.04320313 1.71484375 76.03515625 C-1.73231165 68.25919972 -5.22625371 61.35499592 -11 55 C-11.56589844 54.36578125 -12.13179688 53.7315625 -12.71484375 53.078125 C-16.67897368 48.87129324 -20.97480754 45.83238121 -26 43 C-25.46680159 39.13219564 -23.96926124 37.89742418 -20.9375 35.5625 C-11.3456127 27.29310747 -6.82928317 15.88565077 -2.34765625 4.359375 C-1 1 -1 1 0 0 Z " fill="#FBFBFB" transform="translate(447,14)"/>
<path d="M0 0 C13.53 0 27.06 0 41 0 C41 13.53 41 27.06 41 41 C27.47 41 13.94 41 0 41 C0 27.47 0 13.94 0 0 Z " fill="#060606" transform="translate(189,190)"/>
<path d="M0 0 C13.53 0 27.06 0 41 0 C41 13.2 41 26.4 41 40 C27.47 40 13.94 40 0 40 C0 26.8 0 13.6 0 0 Z " fill="#010101" transform="translate(270,191)"/>
<path d="M0 0 C0.66 0 1.32 0 2 0 C2.27972656 0.75023437 2.55945313 1.50046875 2.84765625 2.2734375 C7.78900818 14.88897907 15.3258021 25.61313022 26 34 C23.79137535 38.06386936 21.44536477 41.78557853 18.6875 45.5 C14.85367819 50.86735054 12.23860426 56.58068787 9.578125 62.58203125 C8.21421037 65.53605428 6.73666577 68.25376647 5 71 C1.18551253 69.72850418 0.5463102 68.23157711 -1.6875 64.9375 C-6.71741895 57.81794561 -13.43695131 48.85434956 -22 46 C-20.51680481 42.18682557 -18.8662438 38.48102881 -17.13671875 34.7734375 C-16.86285843 34.18511139 -16.58899811 33.59678528 -16.30683899 32.9906311 C-15.4349881 31.1181629 -14.56135087 29.24653557 -13.6875 27.375 C-12.8275226 25.53090975 -11.96794527 23.68663474 -11.10891724 21.84210205 C-10.27057365 20.04244614 -9.43094789 18.24338769 -8.59130859 16.44433594 C-6.69905255 12.34860899 -4.86533649 8.22827342 -3.05395508 4.09619141 C-2 2 -2 2 0 0 Z " fill="#FBFBFB" transform="translate(460,140)"/>
<path d="M0 0 C0.66 0 1.32 0 2 0 C2.31453125 0.79664062 2.6290625 1.59328125 2.953125 2.4140625 C5.20374894 7.98639046 7.31655747 13.20036277 11 18 C11.40605469 18.57234375 11.81210937 19.1446875 12.23046875 19.734375 C16.23745225 24.98722731 20.9950835 27.42476901 27 30 C26.40751018 34.10792944 24.17938496 36.71791701 21.75 40 C15.39273012 48.91327262 11.79156997 57.68823686 10.359375 68.6015625 C10 71 10 71 9 73 C5.33402889 72.44501337 5.33402889 72.44501337 3.86254883 70.48461914 C3.56372803 69.84129639 3.26490723 69.19797363 2.95703125 68.53515625 C2.61019287 67.82206299 2.26335449 67.10896973 1.90600586 66.37426758 C1.36472046 65.22994263 1.36472046 65.22994263 0.8125 64.0625 C-4.49312431 53.4788446 -11.11108089 45.62853978 -21 39 C-19.56756748 35.88235275 -17.77597324 33.08219667 -15.87768555 30.22924805 C-11.55475158 23.72134807 -8.00140155 17.23215946 -5 10 C-4.25470414 8.28960915 -3.50499655 6.581131 -2.75 4.875 C-2.43546875 4.15054688 -2.1209375 3.42609375 -1.796875 2.6796875 C-1 1 -1 1 0 0 Z " fill="#FBFBFB" transform="translate(377,89)"/>
</svg>
